Coordinates
version=1
nRows=19
nColumns=34
inDegrees=yes

Units are S.I. units (second, meters, Newtons, ...)
If the header above contains a line with 'inDegrees', this indicates whether rotational values are in degrees (yes) or radians (no).

endheader
time	pelvis_tilt	pelvis_list	pelvis_rotation	pelvis_tx	pelvis_ty	pelvis_tz	hip_flexion_r	hip_adduction_r	hip_rotation_r	knee_angle_r	ankle_angle_r	subtalar_angle_r	mtp_angle_r	hip_flexion_l	hip_adduction_l	hip_rotation_l	knee_angle_l	ankle_angle_l	subtalar_angle_l	mtp_angle_l	lumbar_extension	lumbar_bending	lumbar_rotation	arm_flex_r	arm_add_r	arm_rot_r	elbow_flex_r	pro_sup_r	arm_flex_l	arm_add_l	arm_rot_l	elbow_flex_l	pro_sup_l
      5.41666670	     -5.71333893	      0.65011459	      0.90298494	     -0.61897977	      0.73942597	     -0.16594005	     51.85878187	    -10.40595291	     -6.91748667	     84.16000083	     40.08268303	     -4.36391515	      0.00000000	     53.32466056	    -11.57491436	     -9.10765627	     83.52086151	     38.72859597	      4.05714549	      0.00000000	    -53.40539722	      0.56749093	      1.48919002	     24.25903943	    -11.15165497	    -11.99994699	     33.72439312	     95.73971661	     20.13770767	    -14.34509064	      1.90020191	     39.32481978	    100.24901713
      5.43333330	     -5.76568038	      0.65493249	      0.90432072	     -0.62086712	      0.74550963	     -0.16683385	     51.23418243	    -10.28124186	     -7.06200880	     82.80780524	     39.40618684	     -4.49223303	      0.00000000	     52.92042454	    -11.41985646	     -9.24785143	     82.40889981	     37.98444934	      3.92938649	      0.00000000	    -52.72522645	      0.55676686	      1.45411588	     23.79889131	    -11.00668702	    -11.98536001	     34.07361683	     95.81150676	     19.83313714	    -14.23367960	      1.76506881	     39.54269110	    100.24771790
      5.45000000	     -5.73914989	      0.66152337	      0.89158717	     -0.62025297	      0.75381802	     -0.16662055	     50.21484632	    -10.00229519	     -7.15719482	     80.85013547	     38.87182662	     -4.55455852	      0.00000000	     51.89817908	    -11.25362737	     -9.47453970	     80.63716130	     37.25874378	      3.66001925	      0.00000000	    -52.07829416	      0.49896925	      1.39399115	     23.18078468	    -10.79682137	    -11.94955837	     34.52193025	     95.94759382	     19.50591664	    -14.12622363	      1.58666114	     39.82209307	    100.28018481
      5.46666670	     -5.91646409	      0.66688378	      0.86947708	     -0.61960970	      0.76315295	     -0.16654964	     49.44986488	     -9.83176273	     -7.35218029	     78.82850398	     38.04382211	     -4.26278291	      0.00000000	     51.10500905	    -11.02121071	     -9.69993936	     78.73435873	     36.75015230	      4.07540949	      0.00000000	    -51.17769058	      0.46537330	      1.26987928	     22.62048949	    -10.58396999	    -11.90142515	     34.61476978	     96.01930949	     19.15819131	    -14.05640568	      1.56947440	     39.92170807	    100.31447332
      5.48333330	     -5.85423284	      0.70117539	      0.79667325	     -0.61693870	      0.77162299	     -0.16606019	     48.11452275	     -9.57424821	     -7.44419918	     76.69022057	     37.02856340	     -4.54764907	      0.00000000	     49.65434981	    -10.91793624	    -10.13118118	     76.63982231	     35.80904033	      3.91118420	      0.00000000	    -50.42334403	      0.36202409	      1.11903273	     22.00389975	    -10.30719578	    -11.81033826	     34.76158598	     96.15816672	     18.65818683	    -14.00805420	      1.54344484	     39.95415700	    100.38860993
      5.50000000	     -6.06797672	      0.79898504	      0.69569459	     -0.61541675	      0.77743048	     -0.16616827	     47.09007131	     -9.45794411	     -7.54843756	     74.62327321	     36.03549292	     -4.57640937	      0.00000000	     48.45571908	    -10.77044380	    -10.66146801	     74.49845873	     34.83587090	      3.95222602	      0.00000000	    -49.14894123	      0.26999379	      0.91080670	     21.31302468	    -10.08381482	    -11.73433234	     34.74539328	     96.24897079	     18.07248528	    -14.04483697	      1.56803754	     39.84519130	    100.44411417
      5.51666670	     -6.20535524	      0.88265342	      0.54387486	     -0.61230803	      0.78937950	     -0.16499039	     45.67160952	     -9.12300021	     -7.54790831	     71.87244560	     35.05096765	     -4.29596285	      0.00000000	     46.96066274	    -10.56449626	    -11.12999476	     71.96025757	     33.87226912	      3.82033203	      0.00000000	    -47.88241267	      0.06445935	      0.70976845	     20.58136045	     -9.74914270	    -11.61436689	     34.66151963	     96.34789129	     17.37576029	    -14.09367366	      1.60134070	     39.63710127	    100.50325160
      5.53333330	     -6.06545267	      0.99307967	      0.42883482	     -0.61012291	      0.79958029	     -0.16474717	     43.92069129	     -8.89338688	     -7.66943656	     69.22462646	     34.22564946	     -4.18475075	      0.00000000	     44.90510203	    -10.24040727	    -11.51085024	     69.14421738	     33.02427894	      3.62161923	      0.00000000	    -46.77972829	     -0.19000310	      0.47388616	     19.90061163	     -9.41279546	    -11.35054316	     34.42390957	     96.52768639	     16.67389473	    -14.07189071	      1.63257375	     39.26692367	    100.59263144
      5.55000000	     -6.34064392	      1.12310142	      0.48132928	     -0.60931912	      0.80750217	     -0.16600821	     42.75448650	     -8.81970069	     -7.82058349	     66.86257239	     33.17655772	     -4.15909526	      0.00000000	     43.57901936	     -9.85333090	    -12.05447344	     66.46956758	     31.91892427	      3.70706834	      0.00000000	    -45.14360160	     -0.30391295	      0.22025964	     19.10917429	     -9.23605036	    -11.14050268	     34.16871447	     96.64039373	     15.98564721	    -14.08294006	      1.69889568	     39.02078811	    100.65067710
      5.56666670	     -6.49990364	      1.21178651	      0.48163720	     -0.60010428	      0.81124869	     -0.16639183	     41.20262655	     -8.82102345	     -8.01598882	     64.53074226	     32.25552926	     -4.30592099	      0.00000000	     42.29502565	     -9.58285105	    -12.43603462	     64.50889744	     30.96546227	      3.55190685	      0.00000000	    -43.14753394	     -0.38465392	     -0.06063105	     18.08938446	     -8.97605786	    -10.89177288	     33.71509636	     96.75763003	     14.79764540	    -13.98968261	      1.78411790	     38.43599741	    100.70192072
      5.58333330	     -7.03210539	      1.43054826	      0.46166091	     -0.59897166	      0.81527851	     -0.16520725	     40.55440810	     -8.80705143	     -7.92427151	     62.67964184	     31.49113328	     -4.98764521	      0.00000000	     41.49298508	     -9.19460097	    -12.95698643	     62.38515398	     30.65060077	      3.83188603	      0.00000000	    -40.61276242	     -0.67934950	     -0.53736509	     17.12957539	     -8.62481546	    -10.29189958	     32.91454720	     96.99379064	     13.63626271	    -13.97905099	      1.79228643	     37.50239601	    100.75570266
      5.60000000	     -7.78902912	      1.50743207	      0.41286584	     -0.59445757	      0.81829718	     -0.16665563	     40.23331954	     -8.86199602	     -8.16243492	     60.91780092	     30.48301636	     -4.67077698	      0.00000000	     40.81328235	     -8.88107965	    -13.39148534	     60.15156898	     30.44668944	      4.63878315	      0.00000000	    -37.71744748	     -0.76292748	     -0.73131331	     15.88307045	     -8.51323793	    -10.00046275	     32.37637635	     97.08880006	     12.30356438	    -13.86131181	      1.85821889	     37.09255540	    100.77310111
      5.61666670	     -8.85475262	      1.62305743	      0.37209766	     -0.59082831	      0.82478497	     -0.16774697	     40.02616483	     -8.84019991	     -8.33447645	     58.70642816	     29.34702144	     -4.76256544	      0.00000000	     40.34594806	     -8.41702214	    -13.77190846	     57.60093965	     30.29371131	      5.27327501	      0.00000000	    -34.27065447	     -0.89681487	     -1.06609956	     14.62398194	     -8.28177111	     -9.63315818	     31.77865531	     97.18306261	     10.72431131	    -13.74465991	      1.94546731	     36.35318061	    100.78089045
      5.63333330	     -9.98183570	      1.61657266	      0.26825262	     -0.58900669	      0.83491373	     -0.16906113	     39.65590034	     -8.47842378	     -8.33293848	     55.78413583	     28.13980692	     -5.21218848	      0.00000000	     39.76174719	     -7.90646678	    -13.81818167	     54.73293089	     29.24149463	      5.02936750	      0.00000000	    -30.50286336	     -0.94051077	     -1.35171727	     13.47379397	     -8.01759861	     -8.78521089	     30.46866918	     97.35547419	      9.12582139	    -13.46544931	      2.02039576	     35.08171559	    100.73872427
      5.65000000	    -10.58786585	      1.57177845	      0.27102615	     -0.58272001	      0.84224258	     -0.17045476	     38.34091869	     -8.30190623	     -8.79676706	     52.48612305	     26.76902699	     -4.73002881	      0.00000000	     38.43880461	     -7.45259271	    -14.09055809	     51.44298589	     28.01978836	      5.57316150	      0.00000000	    -27.40470088	     -0.89100531	     -1.46291813	     12.07510266	     -7.89366374	     -8.49746220	     29.93110858	     97.39817011	      7.58009861	    -13.18955128	      2.15700636	     34.62713844	    100.72773545
      5.66666670	    -11.57627991	      1.64758519	      0.12032439	     -0.58444789	      0.85299080	     -0.17268091	     37.74588035	     -8.03919501	     -8.76607015	     49.03335319	     24.78683160	     -5.35465662	      0.00000000	     37.50636016	     -6.68001086	    -14.21763498	     47.68817614	     26.51280199	      5.26492348	      0.00000000	    -23.87398313	     -0.99106059	     -1.80145709	     11.29354638	     -7.89379664	     -6.54844619	     28.28229933	     97.56131047	      6.13562666	    -12.84741015	      2.38214988	     33.43839046	    100.49844960
      5.68333330	    -12.17418402	      1.66779963	      0.11294614	     -0.58345841	      0.85973701	     -0.17330715	     36.65472012	     -7.85970973	     -9.09304650	     45.63144534	     23.14980755	     -4.93660320	      0.00000000	     36.48079212	     -6.03019542	    -14.35798628	     44.20188068	     24.89220497	      5.31189056	      0.00000000	    -21.13190723	     -0.98739273	     -1.97970152	     10.15258569	     -7.78205305	     -6.29051845	     28.11614927	     97.55309140	      4.86093477	    -12.60034168	      2.55220284	     33.37650522	    100.47835758
      5.70000000	    -13.04977779	      1.88405205	      0.21262595	     -0.57940687	      0.86944944	     -0.17446764	     35.86329841	     -7.69885301	     -8.86736983	     42.05643946	     21.29435087	     -5.38238114	      0.00000000	     35.72341728	     -4.97613190	    -14.14672768	     40.56457006	     22.78131643	      4.31860291	      0.00000000	    -18.14572343	     -1.21473114	     -2.36296192	      9.09954077	     -7.59990737	     -5.55616863	     27.72196607	     97.51786132	      3.45440847	    -12.45457267	      2.86756585	     33.22440669	    100.40220344
      5.71666670	    -13.83763860	      1.97798399	      0.34531448	     -0.57734806	      0.87789930	     -0.17575064	     34.81483431	     -7.45296477	     -8.88168853	     38.17020319	     19.53954274	     -5.44104341	      0.00000000	     34.80884806	     -4.11048483	    -14.07616919	     36.74258654	     20.57328298	      3.91936759	      0.00000000	    -15.46657132	     -1.34641343	     -2.53683555	      8.06477378	     -7.51718041	     -4.83471526	     27.35601651	     97.46268929	      2.30673219	    -12.28627426	      3.21369669	     33.30514158	    100.33303513
